<svg width="52" height="33" viewBox="0 0 52 33" fill="none" xmlns="http://www.w3.org/2000/svg">
<path d="M43.2743 10.0973C43.2743 10.6147 42.9143 11.0344 42.4702 11.0344C42.0265 11.0344 41.6665 10.6147 41.6665 10.0973C41.6665 9.57943 42.0265 9.15967 42.4702 9.15967C42.9143 9.15967 43.2743 9.57943 43.2743 10.0973Z" fill="#40A3FF"/>
<path d="M39.8608 23.0762C41.3987 20.6953 44.3519 18.702 46.9563 16.9336H46.9559C48.3473 16.0687 49.6709 15.0631 50.9109 13.928L50.986 13.853C51.8006 12.9908 52.192 12.1408 51.9079 11.2346C50.97 8.23521 43.8693 5.64824 41.94 5.21661C41.3774 3.67311 39.5229 2.62953 39.2926 2.50444C39.1155 2.41508 38.9106 2.44385 38.7566 2.57941L37.3095 3.90409L37.3099 3.90452C37.0251 3.65693 36.7597 3.38101 36.5167 3.07938C36.3582 2.87058 36.1002 2.80956 35.8842 2.92943C35.058 3.35791 34.4199 4.16516 34.1212 5.16031C33.9777 5.65592 33.9033 6.17464 33.9014 6.69768C32.4712 7.47575 31.1486 8.49961 29.9786 9.73457C28.9764 9.40328 25.6109 8.54715 19.6414 9.47826C14.7002 10.2533 11.3777 16.3524 10.1718 18.9455C9.10009 21.2265 8.2212 23.9448 8.20512 25.6008C6.7667 25.4996 5.3966 24.8523 4.30354 23.7573C3.40189 22.6872 2.91746 21.2322 2.96377 19.7332C2.93163 16.8524 4.70537 15.9836 6.76325 15.0338C8.90668 14.0029 11.3934 12.8343 11.3077 8.89733C11.2221 4.96036 9.48048 1.62965 6.86526 0.436203C4.61446 -0.588586 2.16528 0.211283 0.150365 2.63573C0.0516818 2.75517 -0.00253123 2.91558 9.08813e-05 3.08122C0.00233374 3.2473 0.0613965 3.40509 0.16382 3.52017C0.3769 3.7599 0.71632 3.75293 0.921926 3.50447C2.64228 1.42959 4.61451 0.754809 6.47391 1.62967C8.6495 2.62307 10.1608 5.56664 10.2252 8.95359C10.2895 12.028 8.46183 12.8967 6.34529 13.9028C4.22837 14.9088 1.84904 16.0152 1.89201 19.7521C1.84678 21.5889 2.45386 23.3661 3.5693 24.6638C5.38085 26.7012 8.04431 26.8699 8.6872 26.882C11.0131 28.188 11.1847 31.8312 11.1847 31.8813C11.1847 32.047 11.2412 32.2061 11.3417 32.3233C11.4419 32.4402 11.5783 32.5064 11.7204 32.5064H18.2424C18.3923 32.5068 18.5354 32.434 18.6375 32.3059C18.7392 32.1777 18.7904 32.0056 18.7784 31.8312H21.951C22.1999 31.8412 22.422 31.6494 22.4867 31.3687C22.6063 30.7877 22.4807 30.1748 22.1491 29.7193C21.7843 29.2677 21.2949 28.98 20.7664 28.9068C24.7909 29.188 29.6999 28.807 31.7898 27.8132H31.7901C31.8141 29.1104 31.5733 30.3954 31.0881 31.5628C30.9924 31.7554 30.9921 31.993 31.087 32.1861C31.1819 32.3792 31.358 32.4986 31.5487 32.4999H37.6045C37.7533 32.5004 37.8957 32.4285 37.9974 32.3016C38.0991 32.1748 38.151 32.0048 38.1406 31.8313H41.9991C42.1572 31.8339 42.3082 31.7546 42.4118 31.6147C42.5149 31.4747 42.5602 31.2886 42.5348 31.1064C42.2563 29.1632 40.1176 28.838 39.0355 28.8005L39.4 23.8828L39.8608 23.0762ZM50.5521 12.6282C50.3906 12.375 50.2916 12.0751 50.2661 11.7612C50.2407 11.4474 50.2897 11.1309 50.4075 10.8472C50.6224 11.0747 50.7925 11.3541 50.9057 11.6658C50.9914 11.9343 50.8467 12.2595 50.5521 12.6282ZM21.3453 30.5383H18.3603C18.2295 30.3229 18.0703 30.1329 17.8886 29.9755C17.3309 29.5475 16.6804 29.3134 16.0127 29.3008C16.2094 28.9442 16.388 28.575 16.5488 28.1949C17.1506 28.3714 17.7607 28.507 18.3764 28.6011L18.462 29.5383C18.4777 29.7031 18.5491 29.8535 18.6601 29.9568C18.7723 30.0605 18.9151 30.108 19.0568 30.088C20.6646 29.8757 21.2002 30.2881 21.3288 30.4755L21.3453 30.5383ZM19.4481 28.8073V28.7572L19.8126 28.7947L19.4481 28.8073ZM32.3472 31.2257H32.3468C32.7902 29.7489 32.9405 28.1739 32.7864 26.62C32.7644 26.3424 32.5872 26.1157 32.3524 26.0638C32.1195 26.0146 31.8863 26.1493 31.779 26.3951C31.136 27.426 23.9012 28.1884 19.0139 27.4822C18.9481 27.4679 18.8808 27.4679 18.8154 27.4822C17.99 27.3598 17.1758 27.1505 16.3826 26.8576C16.1075 26.753 15.811 26.9217 15.7127 27.2386C15.4103 28.0816 15.0215 28.8793 14.555 29.6133C14.4215 29.8208 14.4118 30.1032 14.5307 30.3225C14.6499 30.5418 14.8727 30.6525 15.091 30.6006C15.4824 30.5256 16.6345 30.4446 17.2775 30.9881C17.3553 31.0544 17.4256 31.132 17.4865 31.2191H12.197C12.0471 29.9695 11.4628 27.1322 9.26024 25.8137C9.19071 25.0452 9.68901 22.5893 11.1039 19.5647C12.2295 17.1463 15.3213 11.4409 19.7694 10.7413C26.5595 9.67906 29.8818 11.0351 29.9086 11.0473V11.0478C30.0933 11.1232 30.2989 11.0752 30.4443 10.9227C31.5101 9.79283 32.6928 8.82301 33.9653 8.03575C34.086 8.83954 34.2931 9.62288 34.5817 10.3665C34.6408 10.5204 34.751 10.6398 34.8871 10.6978C35.0232 10.7553 35.1735 10.7466 35.3035 10.6729C35.434 10.5997 35.5331 10.4676 35.5787 10.3077C35.6247 10.1477 35.6127 9.97291 35.5462 9.82295C35.5462 9.82295 34.5817 7.38585 35.1174 5.57342C35.2755 5.03335 35.5877 4.57216 36.0018 4.26749C37.3577 5.74861 40.3478 7.67319 40.482 7.76079C40.7407 7.9334 41.0708 7.82835 41.2188 7.52627C41.3668 7.22464 41.2767 6.83974 41.0177 6.66713C40.4442 6.29836 39.26 5.49243 38.2148 4.66723L39.1314 3.81156C39.7639 4.21781 40.8518 5.06125 41.0124 5.91736C41.0685 6.2081 41.2928 6.4121 41.5481 6.40469C42.3735 6.40469 47.1057 8.18576 49.5332 10.0606C49.2151 10.8229 49.1284 11.6887 49.2869 12.5164C49.3758 12.866 49.5336 13.1868 49.7474 13.4536C48.6779 14.3249 47.5707 15.1322 46.4302 15.872C43.7506 17.6967 40.6853 19.7588 39.0132 22.3398C35.7016 27.4388 34.5064 29.4322 34.4956 29.4322C34.3835 29.6206 34.3689 29.8651 34.4571 30.0695C34.5453 30.2744 34.7225 30.406 34.9192 30.4134C34.9192 30.4134 36.2376 30.4758 36.8002 31.1946L32.3472 31.2257ZM38.0386 29.8321H38.0382C38.1474 29.9625 38.3003 30.0313 38.4565 30.0196C39.3246 29.9385 40.1963 30.1216 40.9858 30.5505H37.706C37.2361 29.9176 36.5954 29.4904 35.8897 29.3383C36.3237 28.6383 37.0578 27.4635 38.1565 25.7452L37.8885 29.3383C37.8743 29.5174 37.927 29.6953 38.0332 29.8256L38.0386 29.8321Z" fill="#40A3FF"/>
<path d="M19.0408 11.7276C18.8588 11.834 14.5607 14.3835 12.7599 19.2263V19.2267C12.6433 19.544 12.7693 19.9119 13.0414 20.0484C13.3136 20.1844 13.6291 20.0375 13.7461 19.7201C15.386 15.3085 19.4804 12.846 19.523 12.846C19.7881 12.6909 19.895 12.3147 19.7615 12.0056C19.6285 11.697 19.3058 11.5724 19.0408 11.7275L19.0408 11.7276Z" fill="#40A3FF"/>
</svg>
